<svg xmlns="http://www.w3.org/2000/svg" viewBox="0 0 1920 400"><defs><style>.a{fill:#830d1a;}.b{fill:#810d1a;}.c{fill:#7e0d19;}.d{fill:#840d1a;}.e{fill:#790c18;}.f{fill:#800d19;}.g{fill:#910e1d;}.h{fill:#7a0c19;}.i{fill:#7f0d19;}.j{fill:#820d1a;}.k{fill:#7d0d19;}.l{fill:#7c0c19;}.m{fill:#8a0e1c;}.n{fill:#8c0e1c;}.o{fill:#7c0d19;}.p{fill:#870d1b;}.q{fill:#8e0e1c;}.r{fill:#7b0c19;}.s{fill:#8b0e1c;}.t{fill:#860d1b;}.u{fill:#850d1b;}</style></defs><title>Textura Red</title><rect class="a" width="1920" height="400"/><polygon class="b" points="0 79 46 46 50 0 0 0 0 79"/><polygon class="c" points="0 78 45 46 50 0 75 0 96 68 0 102 0 78"/><polygon class="d" points="96 68 0 102 0 146 135 195 96 68"/><polygon class="c" points="144 0 72 0 96 68 144 0"/><polygon class="e" points="173 0 143 0 94 68 134 194 173 0"/><polygon class="f" points="134 194 304 0 171 0 134 194"/><polygon class="a" points="418 84 134 194 305 189 418 84"/><line class="g" x1="418" y1="84" x2="475"/><polygon class="h" points="132 195 418 84 398 0 253 0 132 195"/><polygon class="i" points="304 189 444 180 418 84 304 189"/><polygon class="j" points="579 180 418 84 444 180 579 180"/><polygon class="i" points="475 0 475 0 579 180 418 84 475 0"/><polygon class="k" points="578 180 632 219 578 300 578 180"/><polygon class="l" points="543 0 617 0 633 219 543 0"/><polygon class="d" points="617 0 785 133 630 226 617 0"/><polygon class="k" points="785 132 633 220 753 313 785 132"/><polygon class="c" points="617 0 822 0 785 133 617 0"/><polygon class="h" points="900 258 785 133 923 0 900 258"/><polygon class="e" points="955 179 923 0 898 258 955 179"/><polygon class="d" points="785 133 901 259 842 267 785 133"/><polygon class="m" points="753 313 785 133 842 267 753 313"/><polygon class="f" points="923 0 1085 177 979 247 923 0"/><polygon class="c" points="1120 70 1058 0 923 0 1085 177 1120 70"/><polygon class="f" points="1119 71 1140 0 1058 0 1119 71"/><polygon class="n" points="1085 177 1140 0 1199 184 1085 177"/><polygon class="d" points="1260 24 1140 0 1199 184 1260 24"/><polygon class="l" points="1199 184 1362 141 1380 0 1259 25 1199 184"/><polygon class="c" points="1469 210 1380 0 1359 141 1469 210"/><polygon class="o" points="1544 166 1380 0 1466 210 1544 166"/><polygon class="d" points="1259 25 1251 0 1380 0 1259 25"/><polygon class="o" points="1535 167 1542 0 1605 0 1535 167"/><polygon class="j" points="1711 199 1611 0 1593 0 1536 158 1711 199"/><polygon class="o" points="1688 0 1684 21 1702 190 1604 0 1688 0"/><polygon class="m" points="1676 22 1721 0 1681 0 1676 22"/><polygon class="p" points="1676 22 1782 83 1695 190 1676 22"/><polygon class="o" points="1732 0 1782 84 1773 0 1732 0"/><polygon class="e" points="1736 367 1824 142 1782 81 1736 367"/><polygon class="e" points="1806 142 1865 110 1820 41 1806 142"/><polygon class="c" points="1826 0 1845 0 1860 28 1865 110 1820 41 1826 0"/><polygon class="f" points="1920 24 1859 28 1865 110 1920 76 1920 24"/><polygon class="c" points="1859 28 1878 0 1920 0 1920 24 1859 28"/><polygon class="q" points="1836 255 1865 110 1806 142 1836 255"/><polygon class="p" points="1920 76 1864 110 1920 132 1920 76"/><polygon class="r" points="1836 255 1903 202 1920 132 1865 110 1836 255"/><polygon class="o" points="1920 132 1903 202 1829 361 1863 400 1920 400 1920 132"/><polygon class="e" points="88 271 0 175 0 145 134 194 88 271"/><polygon class="f" points="89 271 0 302 0 174 89 271"/><polygon class="o" points="34 348 87 271 0 302 0 331 34 348"/><polygon class="p" points="88 270 108 359 33 348 88 270"/><polygon class="i" points="0 400 17 400 0 376 0 400"/><polygon class="r" points="14 400 34 347 107 358 202 400 14 400"/><polygon class="h" points="107 358 88 271 134 193 255 400 202 400 107 358"/><polygon class="a" points="386 321 134 194 254 400 304 400 386 321"/><polygon class="h" points="444 180 386 321 132 193 444 180"/><polygon class="d" points="304 400 398 400 385 321 304 400"/><polygon class="c" points="398 400 384 321 475 400 398 400"/><polygon class="o" points="469 295 384 320 475 400 469 295"/><polygon class="s" points="511 283 468 295 544 400 511 283"/><polygon class="c" points="510 285 580 178 442 179 510 285"/><polygon class="r" points="568 301 507 287 581 175 581 305 568 301"/><polygon class="o" points="543 400 618 400 579 300 567 297 535 370 543 400"/><polygon class="t" points="753 313 716 400 618 400 579 300 753 313"/><polygon class="o" points="630 216 577 301 753 313 630 216"/><polygon class="r" points="842 267 753 313 822 400 876 400 842 267"/><polygon class="r" points="980 247 842 267 876 400 923 400 980 247"/><polygon class="t" points="1140 400 979 247 923 400 1140 400"/><polygon class="c" points="1085 278 979 247 1140 400 1085 278"/><polygon class="s" points="1084 177 978 247 1084 278 1084 177"/><polygon class="i" points="1085 278 1140 400 1233 400 1242 323 1085 278"/><polygon class="j" points="1200 183 1083 177 1083 279 1200 183"/><polygon class="n" points="1242 325 1198 184 1317 213 1242 325"/><polygon class="j" points="1233 400 1242 324 1316 213 1362 141 1283 400 1233 400"/><polygon class="i" points="1283 400 1362 139 1406 400 1283 400"/><polygon class="f" points="1448 400 1466 210 1562 400 1448 400"/><polygon class="l" points="1406 400 1450 400 1469 210 1359 139 1406 400"/><polygon class="l" points="1527 333 1545 165 1465 209 1527 333"/><polygon class="r" points="1560 400 1527 333 1736 367 1715 400 1560 400"/><polygon class="o" points="1544 167 1702 190 1736 367 1544 167"/><polygon class="f" points="1715 400 1735 367 1832 362 1832 400 1715 400"/><polygon class="q" points="1803 288 1732 370 1836 365 1803 288"/><polygon class="m" points="1831 400 1831 362 1864 400 1831 400"/><polygon class="c" points="1836 255 1903 202 1831 362 1802 291 1836 255"/><polygon class="c" points="955 179 897 259 979 248 955 179"/><polygon class="u" points="753 313 716 400 822 400 753 313"/></svg>