<?xml version="1.0"?>
<svg xmlns="http://www.w3.org/2000/svg" xmlns:xlink="http://www.w3.org/1999/xlink" version="1.1" id="Layer_1" x="0px" y="0px" viewBox="0 0 512 512" style="enable-background:new 0 0 512 512;" xml:space="preserve" width="512px" height="512px" class=""><g><circle style="fill:#C91428" cx="256" cy="256" r="256" data-original="#FFC61B" class="" data-old_color="#FFC61B"/><path style="fill:#C21326" d="M512,256c0-0.91-0.026-1.814-0.034-2.722L392.516,133.829L212.328,307.717l-93.193,70.072  l134.177,134.177c0.896,0.009,1.788,0.034,2.686,0.034C397.384,512,512,397.384,512,256z" data-original="#EAA22F" class="" data-old_color="#EAA22F"/><path style="fill:#FFFFFF;" d="M378.54,384H133.458c-10.869,0-19.68-8.811-19.68-19.682V147.68c0-10.869,8.811-19.68,19.68-19.68  H378.54c10.869,0,19.682,8.811,19.682,19.68v216.638C398.222,375.189,389.411,384,378.54,384z" data-original="#FFFFFF" class=""/><path style="fill:#D0D1D3" d="M378.54,128H255.855v256H378.54c10.869,0,19.682-8.811,19.682-19.682V147.682  C398.222,136.811,389.411,128,378.54,128z" data-original="#D0D1D3" class="" data-old_color="#FFFFFF"/><path style="fill:#FFFFFF" d="M398.222,147.682c0-10.869-8.811-19.682-19.682-19.682H133.46c-10.871,0-19.682,8.811-19.682,19.682  v20.744h284.444V147.682z" data-original="#386895" class="" data-old_color="#386895"/><path style="fill:#FFFFFF" d="M398.222,147.682c0-10.869-8.811-19.682-19.682-19.682H255.855v40.426h142.367V147.682z" data-original="#273B7A" class="" data-old_color="#273B7A"/><path style="fill:#FFFFFF" d="M113.988,367.049c1.333,9.575,9.528,16.951,19.47,16.951H378.54c9.942,0,18.137-7.378,19.47-16.951  L113.988,367.049L113.988,367.049z" data-original="#808183" class="" data-old_color="#808183"/><path style="fill:#FFFFFF" d="M255.857,367.049V384h122.685c9.942,0,18.137-7.378,19.47-16.951L255.857,367.049L255.857,367.049z" data-original="#59595B" class="" data-old_color="#59595B"/><path style="fill:#D0D1D3" d="M373.226,158.599H138.774c-4.046,0-7.327-3.281-7.327-7.327l0,0c0-4.046,3.281-7.327,7.327-7.327  h234.451c4.046,0,7.327,3.281,7.327,7.327l0,0C380.552,155.319,377.272,158.599,373.226,158.599z" data-original="#D0D1D3" class="" data-old_color="#FFFFFF"/><path style="fill:#A6A8AA" d="M373.226,143.946H255.857v14.653h117.369c4.046,0,7.327-3.281,7.327-7.327  S377.272,143.946,373.226,143.946z" data-original="#A6A8AA" class=""/><rect x="133.603" y="191.56" style="fill:#F4E5C1" width="244.795" height="152.997" data-original="#FFEDB5" class="active-path" data-old_color="#FFEDB5"/><rect x="255.862" y="191.56" style="fill:#F4E5C1" width="122.535" height="152.997" data-original="#FEE187" class="" data-old_color="#F4E4BF"/><path style="fill:#B54324;" d="M252.656,320.51c1.602,2.362,5.087,2.362,6.687,0c12.784-18.861,57.854-42.284,57.854-72.609  c0-20.914-13.7-30.599-30.599-30.599c-16.899,0-30.599,13.7-30.599,30.599c0-16.899-13.7-30.599-30.599-30.599  s-30.598,9.683-30.598,30.599C194.801,278.226,239.871,301.649,252.656,320.51z" data-original="#B54324" class=""/><path style="fill:#930000" d="M286.599,217.302c-16.899,0-30.599,13.7-30.599,30.599c0-0.957-0.057-1.9-0.143-2.834v77.198  c1.319,0.047,2.657-0.529,3.487-1.755c12.784-18.861,57.854-42.284,57.854-72.609C317.199,226.985,303.499,217.302,286.599,217.302z  " data-original="#930000" class=""/></g> </svg>
