<?xml version="1.0"?>
<svg xmlns="http://www.w3.org/2000/svg" xmlns:xlink="http://www.w3.org/1999/xlink" version="1.1" id="Layer_1" x="0px" y="0px" viewBox="0 0 508 508" style="enable-background:new 0 0 508 508;" xml:space="preserve" width="512px" height="512px" class=""><g><circle style="fill:#C21326" cx="254" cy="254" r="254" data-original="#FFD05B" class="" data-old_color="#AE1122"/><path style="fill:#0A0A0A" d="M256.8,177.6h-100v119.6c64.4-17.2,100.4,24,100.4,24s36-41.2,100.4-24V177.6H256.8z" data-original="#2B3B4E" class="" data-old_color="#0B0B0B"/><polygon style="fill:#E9930E" points="252.8,349.2 233.2,349.2 233.2,398 252.8,381.6 272.4,398 272.4,349.2 " data-original="#F1543F" class="active-path" data-old_color="#5892C3"/><path style="fill:#EBEBED" d="M418.8,277.6c-109.6,14.4-221.6,14.4-331.6,0l0,0v96.8l0,0c109.6-14.4,221.6-14.4,331.6,0l0,0V277.6  L418.8,277.6z" data-original="#E6E9EE" class="" data-old_color="#FFFFFF"/><path style="fill:#E9930E" d="M275.6,288.4V364c-7.6,0-15.2,0-22.4,0c-7.6,0-15.2,0-22.4,0v-75.6  C245.6,288.8,260.4,288.8,275.6,288.4z" data-original="#FF7058" class="" data-old_color="#FF7058"/><polygon style="fill:#E9930E" points="409.2,304 368,304 376.8,269.2 400.4,269.2 " data-original="#F9B54C" class="" data-old_color="#EA940F"/><rect x="384.8" y="177.6" style="fill:#E9930E" width="8" height="103.2" data-original="#FF7058" class="" data-old_color="#FF7058"/><polygon style="fill:#232323" points="256.8,110 92.8,177.6 256.8,244.8 420.8,177.6 " data-original="#324A5E" class="" data-old_color="#242424"/><circle style="fill:#C21326" cx="388.8" cy="269.2" r="16.4" data-original="#FFD05B" class="" data-old_color="#AE1122"/></g> </svg>
