<?xml version="1.0"?>
<svg xmlns="http://www.w3.org/2000/svg" xmlns:xlink="http://www.w3.org/1999/xlink" version="1.1" id="Layer_1" x="0px" y="0px" viewBox="0 0 512 512" style="enable-background:new 0 0 512 512;" xml:space="preserve" width="512px" height="512px" class=""><g><circle style="fill:#C91428" cx="256" cy="256" r="256" data-original="#386895" class="" data-old_color="#C21326"/><path style="fill:#C21326" d="M311.986,505.842c104.61-23.34,185.068-110.685,198.137-218.805L403.097,180.012l-27.526,27.526  l-51.128-51.128l-62.235,51.895L98.263,292.119L311.986,505.842z" data-original="#273B7A" class="" data-old_color="#273B7A"/><g>
	<path style="fill:#FBF9F8" d="M248.413,361.587c-1.514,0-3.036-0.122-4.555-0.378l-74.087-12.348   c-13.365-2.226-23.066-13.677-23.066-27.227V274.53h129.293v59.451c0,8.13-3.556,15.807-9.761,21.063   C261.21,359.305,254.895,361.587,248.413,361.587z M160.499,288.322v33.313c0,6.782,4.853,12.51,11.54,13.624l74.087,12.348   c4.01,0.664,8.095-0.457,11.2-3.087c3.105-2.629,4.884-6.47,4.884-10.538v-45.659H160.499z" data-original="#FF7F4F" class="" data-old_color="#FBF3F1"/>
	<rect x="98.263" y="201.645" style="fill:#FBF9F8" width="45.235" height="90.471" data-original="#FF7F4F" class="" data-old_color="#FBF3F1"/>
</g><rect x="98.263" y="248.673" style="fill:#EBE8E8" width="45.235" height="43.442" data-original="#D35933" class="" data-old_color="#EBE6E6"/><polygon style="fill:#FFFFFF;" points="324.444,337.356 120.88,292.119 120.88,201.647 324.444,156.41 " data-original="#FFFFFF" class=""/><polygon style="fill:#D0D1D3" points="120.88,248.673 120.88,292.119 324.444,337.356 324.444,248.673 " data-original="#D0D1D3" class=""/><polygon style="fill:#EBE8E8" points="324.444,156.41 302.054,161.387 302.054,332.381 324.444,337.356 " data-original="#D35933" class="" data-old_color="#EBE6E6"/><polygon style="fill:#CACACA" points="302.054,248.673 302.054,332.381 324.444,337.356 324.444,248.673 " data-original="#B54324" class="" data-old_color="#C9C8C8"/><path style="fill:#FFC900" d="M426.667,262.896h-56.889c-3.808,0-6.896-3.088-6.896-6.896c0-3.808,3.088-6.896,6.896-6.896h56.889  c3.808,0,6.896,3.088,6.896,6.896C433.562,259.808,430.475,262.896,426.667,262.896z" data-original="#FFC61B" class="" data-old_color="#0043A1"/><path style="fill:#FFC900" d="M362.925,256.431c0.228,3.603,3.193,6.465,6.853,6.465h56.889c3.66,0,6.625-2.862,6.853-6.465  H362.925z" data-original="#EAA22F" class="active-path" data-old_color="#386895"/><path style="fill:#FFC900" d="M369.778,220.229c-1.764,0-3.531-0.674-4.875-2.02c-2.694-2.693-2.694-7.059,0-9.75l28.444-28.444  c2.691-2.694,7.061-2.694,9.75,0c2.694,2.693,2.694,7.059,0,9.75l-28.444,28.444C373.308,219.555,371.541,220.229,369.778,220.229z" data-original="#FFC61B" class="" data-old_color="#0043A1"/><path style="fill:#FFC900" d="M398.222,334.007c-1.764,0-3.531-0.674-4.875-2.02l-28.444-28.444c-2.694-2.693-2.694-7.059,0-9.75  c2.691-2.694,7.061-2.694,9.75,0l28.444,28.444c2.694,2.693,2.694,7.059,0,9.75C401.753,333.333,399.986,334.007,398.222,334.007z" data-original="#EAA22F" class="active-path" data-old_color="#386895"/></g> </svg>
